<svg xmlns="http://www.w3.org/2000/svg" width="16" height="16" viewBox="0 0 18 19.875">
    <g id="delete_-trash_-dust-bin_-remove_-recycle-bin" data-name="delete,-trash,-dust-bin,-remove,-recycle-bin" transform="translate(-2.4 -1.4)">
        <path id="Path_30523" fill="#8f9bb3" d="M19.837 4.213h-5.531V2.9a1.5 1.5 0 0 0-1.5-1.5H9.994a1.5 1.5 0 0 0-1.5 1.5v1.313H2.963a.563.563 0 1 0 0 1.125h1.312V17.9a3.379 3.379 0 0 0 3.375 3.375h7.5a3.379 3.379 0 0 0 3.375-3.375V5.338h1.313a.563.563 0 0 0 0-1.125zM9.619 2.9a.375.375 0 0 1 .375-.375h2.813a.375.375 0 0 1 .375.375v1.313H9.619V2.9zm7.781 15a2.253 2.253 0 0 1-2.25 2.25h-7.5A2.253 2.253 0 0 1 5.4 17.9V5.338h12V17.9zm-8.906-.937V8.525a.563.563 0 0 1 1.125 0v8.438a.563.563 0 0 1-1.125 0zm4.688 0V8.525a.563.563 0 1 1 1.125 0v8.438a.563.563 0 0 1-1.125 0z" data-name="Path 30523"/>
    </g>
</svg>
