<svg xmlns="http://www.w3.org/2000/svg" width="14" height="12.783" viewBox="0 0 14 12.783">
    <path fill="#274bdb" d="M1.826 2.826V1h1.217v1.826H4.87v1.217H3.043V5.87H1.826V4.043H0V2.826zm1.826 3.652V4.652h1.826V2.826h4.261l1.114 1.217h1.93A1.221 1.221 0 0 1 14 5.261v7.3a1.221 1.221 0 0 1-1.217 1.217h-9.74a1.221 1.221 0 0 1-1.217-1.217V6.478zm4.261 5.478A3.043 3.043 0 1 0 4.87 8.913a3.045 3.045 0 0 0 3.043 3.044zM5.965 8.913a1.948 1.948 0 1 0 1.948-1.948 1.946 1.946 0 0 0-1.948 1.948z" transform="translate(0 -1)"/>
</svg>
