<svg xmlns="http://www.w3.org/2000/svg" xmlns:xlink="http://www.w3.org/1999/xlink" width="349.58" height="127.412" viewBox="0 0 349.58 127.412">
  <defs>
    <linearGradient id="linear-gradient" y1="0.5" x2="1" y2="0.5" gradientUnits="objectBoundingBox">
      <stop offset="0" stop-color="#36f"/>
      <stop offset="0.999" stop-color="#102694"/>
      <stop offset="1" stop-color="#0063b0"/>
    </linearGradient>
  </defs>
  <g id="Group_21100" data-name="Group 21100" transform="translate(21946.789 18857)">
    <g id="Group_21099" data-name="Group 21099" transform="translate(-22610.746 -19298.109)">
      <ellipse id="Ellipse_623" data-name="Ellipse 623" cx="23.5" cy="24.5" rx="23.5" ry="24.5" transform="translate(688.745 441.11)" fill="#36f"/>
      <path id="Path_31066" data-name="Path 31066" d="M663.966,451.047V478.6s18.055,18.215,48.127,19.575c0,0,25.279,2.461,48.121-12.657V457.97s-18.609,14.045-48.121,12.545A84.712,84.712,0,0,1,663.966,451.047Z" transform="translate(0.035 38.305)" fill="url(#linear-gradient)"/>
      <path id="Path_31067" data-name="Path 31067" d="M663.957,493.725v27.551s37.082,13.773,73.571-13.778a78.527,78.527,0,0,0,22.764-27.479V452.473s-17.72,38.475-61.812,44A82.469,82.469,0,0,1,663.957,493.725Z" transform="translate(0 43.802)" fill="#36f"/>
    </g>
    <path id="Path_31374" data-name="Path 31374" d="M163.81,81.2a2.87,2.87,0,0,1-.27,1.23,3.47,3.47,0,0,1-.78,1,3.67,3.67,0,0,1-1.1.7,3.14,3.14,0,0,1-1.25.25,3.5,3.5,0,0,1-3.12-2,2.8,2.8,0,0,1-.28-1.18,15.32,15.32,0,0,1-5.34,3.28,16.76,16.76,0,0,1-5.3.92,15,15,0,0,1-4.7-.7,13.13,13.13,0,0,1-3.5-1.65,22.219,22.219,0,0,1-2.84-2.35,16.05,16.05,0,0,1-2.48-3,15.811,15.811,0,0,1-1.72-3.7,14,14,0,0,1-.65-4.37,19.28,19.28,0,0,1,1.7-8.2,16,16,0,0,1,1.67-2.9,25.7,25.7,0,0,1,1.83-2.2,17.59,17.59,0,0,1,2-1.64,16.39,16.39,0,0,1,2.35-1.35,14.09,14.09,0,0,1,3.1-1,14.33,14.33,0,0,1,3.25-.35,15.4,15.4,0,0,1,5.7,1.07A15.9,15.9,0,0,1,157,56.07a2.88,2.88,0,0,1,1.05-2.2,3.31,3.31,0,0,1,3.58-.7,3.64,3.64,0,0,1,1.12.7,3.72,3.72,0,0,1,.8,1,2.49,2.49,0,0,1,.3,1.18v3.54Zm-16.14-22a12,12,0,0,0-3.12.45,8.86,8.86,0,0,0-3.38,1.9,8.54,8.54,0,0,0-2.42,3.6,11.59,11.59,0,0,0-.68,4.45A8.59,8.59,0,0,0,139,73a9.11,9.11,0,0,0,2.08,2.7A9.62,9.62,0,0,0,144,77.5a9.34,9.34,0,0,0,3.47.65,9.47,9.47,0,0,0,3.5-.62,8.78,8.78,0,0,0,2.8-1.75,8.9,8.9,0,0,0,1.95-2.7,10,10,0,0,0,.9-3.47,9.35,9.35,0,0,0-.23-3.42,12.5,12.5,0,0,0-1.27-3,8.7,8.7,0,0,0-2.85-2.67,8.84,8.84,0,0,0-4.6-1.31Z" transform="translate(-21946.789 -18857)" fill="#8f9bb3"/>
    <path id="Path_31375" data-name="Path 31375" d="M175.8,39.92a3.8,3.8,0,0,1,2.9,1,3.12,3.12,0,0,1,1,2.15V81.2a3,3,0,0,1-.22,1.08,3.32,3.32,0,0,1-.68,1,3.46,3.46,0,0,1-1.15.77,4,4,0,0,1-1.6.3,4.33,4.33,0,0,1-1.67-.3,4,4,0,0,1-1.22-.77,3.5,3.5,0,0,1-.78-1,2.56,2.56,0,0,1-.27-1.08V43.12a2.75,2.75,0,0,1,1.17-2.35A4.27,4.27,0,0,1,175.8,39.92ZM198,58.76l-9,9.75,9.14,10.34a2.86,2.86,0,0,1,.78,1.33,3.42,3.42,0,0,1,0,1.42,3.18,3.18,0,0,1-.55,1.3,3,3,0,0,1-1.08.95,4.44,4.44,0,0,1-2.29.55,5,5,0,0,1-1.7-.3,3.68,3.68,0,0,1-1.55-1.1l-.9-1-1.4-1.6c-.53-.6-1.11-1.25-1.73-2l-1.82-2.13q-2.1-2.44-4.65-5.39a5.69,5.69,0,0,1-.52-.85,3,3,0,0,1-.28-1,3.53,3.53,0,0,1,.15-1.25,5.18,5.18,0,0,1,.85-1.52l1-1.15c.41-.5.9-1,1.45-1.65l1.77-1.95,1.85-2.05,4.75-5.14a3.59,3.59,0,0,1,2.73-1.4,4.11,4.11,0,0,1,3.82,3.22,3.34,3.34,0,0,1-.82,2.62Z" transform="translate(-21946.789 -18857)" fill="#8f9bb3"/>
    <path id="Path_31376" data-name="Path 31376" d="M240.42,81.2a2.87,2.87,0,0,1-.27,1.23,3.16,3.16,0,0,1-.78,1,3.55,3.55,0,0,1-1.1.7,3.14,3.14,0,0,1-1.25.25,3.678,3.678,0,0,1-3.12-2,2.78,2.78,0,0,1-.27-1.18,15.44,15.44,0,0,1-5.35,3.28,16.76,16.76,0,0,1-5.3.92,15,15,0,0,1-4.7-.7,12.91,12.91,0,0,1-3.49-1.65,21.62,21.62,0,0,1-2.85-2.35,16.049,16.049,0,0,1-2.48-3,16.22,16.22,0,0,1-1.72-3.7,14.34,14.34,0,0,1-.65-4.37,19.28,19.28,0,0,1,1.7-8.2,16.6,16.6,0,0,1,1.67-2.9,25.7,25.7,0,0,1,1.83-2.2,17.728,17.728,0,0,1,2.05-1.64,16.251,16.251,0,0,1,2.34-1.35,14.94,14.94,0,0,1,6.35-1.4,15.4,15.4,0,0,1,5.7,1.07,16.07,16.07,0,0,1,4.9,3.08,2.88,2.88,0,0,1,1.05-2.2,3.29,3.29,0,0,1,3.57-.7,3.79,3.79,0,0,1,1.92,1.72,2.49,2.49,0,0,1,.3,1.18v3.54Zm-16.14-22a12,12,0,0,0-3.12.45,8.93,8.93,0,0,0-3.38,1.9,8.64,8.64,0,0,0-2.42,3.6,11.39,11.39,0,0,0-.67,4.45,8.27,8.27,0,0,0,.9,3.42,8.92,8.92,0,0,0,2.07,2.7,9.62,9.62,0,0,0,3,1.77,9.34,9.34,0,0,0,3.47.65,9.47,9.47,0,0,0,3.5-.62,8.67,8.67,0,0,0,2.8-1.75,8.9,8.9,0,0,0,2-2.7,9.82,9.82,0,0,0,.9-3.47,9.349,9.349,0,0,0-.23-3.42,12.5,12.5,0,0,0-1.27-3,8.7,8.7,0,0,0-2.85-2.67,8.81,8.81,0,0,0-4.7-1.3Z" transform="translate(-21946.789 -18857)" fill="#8f9bb3"/>
    <path id="Path_31377" data-name="Path 31377" d="M259.63,43.62a2.47,2.47,0,0,1,.35-1.33,3.64,3.64,0,0,1,.89-1,4,4,0,0,1,1.25-.65,4.73,4.73,0,0,1,1.45-.23,4.13,4.13,0,0,1,3.1,1.08,3.3,3.3,0,0,1,1.1,2.12V73.2A13.64,13.64,0,0,1,267,78a11.68,11.68,0,0,1-2.35,3.87,11,11,0,0,1-3.65,2.6,11.64,11.64,0,0,1-4.77,1,11.3,11.3,0,0,1-4.1-.62,5.77,5.77,0,0,1-2.3-1.53,3.62,3.62,0,0,1,.93-5.57,4.84,4.84,0,0,1,2-.47,8.751,8.751,0,0,1,1.3.09l.95.15a5.35,5.35,0,0,0,3.45-1,4,4,0,0,0,1.2-3.28V43.62Z" transform="translate(-21946.789 -18857)" fill="#36f"/>
    <path id="Path_31378" data-name="Path 31378" d="M275.62,68.71a16.717,16.717,0,0,1,10.17-15.5,16.15,16.15,0,0,1,6.42-1.29,16.54,16.54,0,0,1,6.5,1.29A17,17,0,0,1,304,56.76a16.429,16.429,0,0,1,3.57,5.32,16.789,16.789,0,0,1,1.3,6.63A16.57,16.57,0,0,1,304,80.55a17,17,0,0,1-5.32,3.55,16.37,16.37,0,0,1-6.5,1.3,16,16,0,0,1-6.42-1.3,16.62,16.62,0,0,1-8.85-8.85A16.26,16.26,0,0,1,275.62,68.71Zm7.54,0a9.44,9.44,0,0,0,2.63,6.57,8.7,8.7,0,0,0,2.9,2,9.105,9.105,0,0,0,10.07-2,9.571,9.571,0,0,0,2-3,9.12,9.12,0,0,0,.73-3.6,9.65,9.65,0,0,0-.73-3.73,9.23,9.23,0,0,0-2-3,9.39,9.39,0,0,0-2.93-2,9,9,0,0,0-11.93,5,10,10,0,0,0-.74,3.76Z" transform="translate(-21946.789 -18857)" fill="#36f"/>
    <path id="Path_31379" data-name="Path 31379" d="M316.4,43.37a3.79,3.79,0,0,1,.32-1.65,3.12,3.12,0,0,1,.83-1,3,3,0,0,1,1.12-.57,4.28,4.28,0,0,1,1.17-.18,3.38,3.38,0,0,1,2.43,1,3.3,3.3,0,0,1,1,2.45v12.7a16.1,16.1,0,0,1,4.9-3.12,15.17,15.17,0,0,1,17.16,4.28,17.48,17.48,0,0,1,3.15,5.64,20.289,20.289,0,0,1,1.1,6.7,14.289,14.289,0,0,1-.65,4.37,16.219,16.219,0,0,1-1.72,3.72,16.709,16.709,0,0,1-2.45,3,21.417,21.417,0,0,1-2.82,2.35,13.53,13.53,0,0,1-3.45,1.65,14.55,14.55,0,0,1-4.65.7,16.32,16.32,0,0,1-5.25-.92,15.63,15.63,0,0,1-5.3-3.28,2.51,2.51,0,0,1-.29,1.18,3.92,3.92,0,0,1-.8,1,3.69,3.69,0,0,1-1.13.7,3.34,3.34,0,0,1-1.27.25,3.14,3.14,0,0,1-1.25-.25,3.67,3.67,0,0,1-1.1-.7,3.31,3.31,0,0,1-.78-1,2.84,2.84,0,0,1-.27-1.23ZM325,63.21a12.628,12.628,0,0,0-1.27,3,10.081,10.081,0,0,0-.28,3.45,11.22,11.22,0,0,0,.93,3.42,8.5,8.5,0,0,0,1.92,2.7,8.78,8.78,0,0,0,2.8,1.75,9.47,9.47,0,0,0,3.5.62,9,9,0,0,0,3.42-.65,9.74,9.74,0,0,0,2.9-1.77A9.24,9.24,0,0,0,341,73.06a8.411,8.411,0,0,0,.9-3.4,10.82,10.82,0,0,0-.63-4.45,8.64,8.64,0,0,0-2.42-3.6,8.871,8.871,0,0,0-3.2-1.82,10.34,10.34,0,0,0-2.95-.48,10.87,10.87,0,0,0-4.37.95A7,7,0,0,0,325,63.21Z" transform="translate(-21946.789 -18857)" fill="#36f"/>
  </g>
</svg>
